<svg width="120" height="24" xmlns="http://www.w3.org/2000/svg">
 <g>
  <title>background</title>
  <rect fill="none" id="canvas_background" height="26" width="120" y="-1" x="-1"/>
 </g>
 <g>
  <title>TELSA Logo</title>
  <g stroke="null" id="telsa_logo">
   <!-- T (x: 0-13) -->
   <path stroke="null" fill="#000" d="m0.33333,2.84514a2.83227,5.1168 0 0 0 2.04391,3.65562l3.19141,0l0.16351,0.11606l0,14.54857l1.99134,0l0,-14.52749l0.18104,-0.11606l3.19434,0a2.86731,5.1801 0 0 0 2.0439,-3.65559l0,-0.03694l-12.80944,0l0,0.01583z"/>
   <!-- E (x: 17-29, shifted right +2 from original 15) -->
   <path stroke="null" fill="#000" d="m17.5,6.15166l7.59164,0a2.79431,5.04822 0 0 0 2.0585,-3.69254l-11.70864,0a2.80599,5.06932 0 0 0 2.0585,3.69254z"/>
   <path stroke="null" fill="#000" d="m17.5,13.41539l7.59164,0a2.80015,5.05877 0 0 0 2.0585,-3.69251l-11.70864,0a2.81183,5.07987 0 0 0 2.0585,3.69251z"/>
   <path stroke="null" fill="#000" d="m17.5,20.87432l7.59164,0a2.80015,5.05877 0 0 0 2.0585,-3.69254l-11.70864,0a2.80891,5.0746 0 0 0 2.0585,3.69254z"/>
   <!-- L (x: 33-44) -->
   <path stroke="null" fill="#000" d="m33,2.82405l-1.98551,0l0,18.38354l9.09245,0a2.82643,5.10625 0 0 0 1.73441,-3.61868l-8.84721,0l0.00586,-14.76486z"/>
   <!-- S (x: 51-63, extra gap before S for L|S spacing) -->
   <path stroke="null" fill="#000" d="m54.5,6.44273c1.057,-0.52752 1.94464,-2.01507 2.15779,-3.62922l-11.12468,0.03163l0,10.84024l9.10121,0l0,3.81385l-7.14199,0a3.97101,7.17407 0 0 0 -2.54319,3.69254l11.64734,0l0,-11.11452l-9.0983,0l0,-3.63451l7.00182,0z"/>
   <!-- A (x: 60-72) - top bar with left chamfer + two legs -->
   <path stroke="null" fill="#000" d="M62,6.15166l7.59164,0a2.79723,5.0535 0 0 0 2.06142,-3.69254l-11.71156,0c0.3,0.8 0.9,2.2 2.0585,3.69254z"/>
   <path stroke="null" fill="#000" d="M60.99,21.19759l1.97383,0l0,-7.39562l7.17702,0l0,7.39562l1.97089,0l0,-11.08815l-11.12175,-0.02111l0,11.10927z"/>
  </g>
 </g>
</svg>